# xmcd
#
# Track frame offsets:
#	150
#	13710
#	31879
#	50667
#	65850
#	81870
#	97168
#	111687
#	130945
#	154259
#	166805
#	185620
#
# Disc length: 2652 seconds
# Revision: 0
# Processed by: cddbd v1.5.2PL0 Copyright (c) Steve Scherf et al.
# Submitted via: dBpowerAMP V12.0
#
DISCID=ac0a5a0c
DTITLE=Kathy Barwick - Braeburn
DYEAR=1900
DGENRE=2014
TTITLE0=Caribou
TTITLE1=Hartford's Waltz - Cherry Blossom Waltz
TTITLE2=Sweet Sunny South
TTITLE3=Little Rabbit
TTITLE4=Childhood Memories
TTITLE5=Down By the Sally Garden - Down in the Willow Garden
TTITLE6=The Cantara Loop
TTITLE7=Angelina Baker
TTITLE8=Southern Railroad
TTITLE9=Calliope House
TTITLE10=Mother's Delight - The Torn Jacket
TTITLE11=Braeburn
EXTD=
EXTT0=
EXTT1=
EXTT2=
EXTT3=
EXTT4=
EXTT5=
EXTT6=
EXTT7=
EXTT8=
EXTT9=
EXTT10=
EXTT11=
PLAYORDER=
